# xmcd
#
# Track frame offsets:
#       150
#       10980
#       26415
#       46590
#       57600
#       70060
#       78785
#       94420
#       110505
#       124290
#       137115
#       149170
#       161055
#       172945
#
# Disc length: 2465 seconds
#
# Revision: 1
# Processed by: cddbd v1.5.1PL0 Copyright (c) Steve Scherf et al.
# Submitted via: MusiCat 1.1
#
DISCID=c2099f0e
DTITLE=Dick Farney - Meus Momentos CD 2
DYEAR=1900
DGENRE=
TTITLE0=Um cantinho e você
TTITLE1=Inútil Paisagem
TTITLE2=Tenderly
TTITLE3=Uma loira
TTITLE4=O que é amar
TTITLE5=The lady is a tramp
TTITLE6=Sábado em copacabana
TTITLE7=Apelo
TTITLE8=The shadow of your smile
TTITLE9=Aeromoça
TTITLE10=Não tem solução
TTITLE11=Misty
TTITLE12=Barqueiro de São Francisco
TTITLE13=Preciso aprender a ser só
EXTD=\n\n
EXTT0=
EXTT1=
EXTT2=
EXTT3=
EXTT4=
EXTT5=
EXTT6=
EXTT7=
EXTT8=
EXTT9=
EXTT10=
EXTT11=
EXTT12=
EXTT13=
PLAYORDER=
